<svg xmlns="http://www.w3.org/2000/svg" xmlns:xlink="http://www.w3.org/1999/xlink" id="Firefox_-_Large" width="931.021" height="960.938" x="0" y="0" enable-background="new 494.18 1.953 931.021 960.938" version="1.1" viewBox="494.18 1.953 931.021 960.938" xml:space="preserve"><title>firefox-logo</title><g><radialGradient id="SVGID_1_" cx="-15215.778" cy="9492.695" r="450.875" fx="-15244.537" fy="9492.695" gradientTransform="matrix(0.7441 0.0332 0.0488 -1.0938 12240.25 11130.2295)" gradientUnits="userSpaceOnUse"><stop offset=".045" style="stop-color:#ffea00"/><stop offset=".12" style="stop-color:#ffde00"/><stop offset=".254" style="stop-color:#ffbf00"/><stop offset=".429" style="stop-color:#ff8e00"/><stop offset=".769" style="stop-color:#ff272d"/><stop offset=".872" style="stop-color:#e0255a"/><stop offset=".953" style="stop-color:#cc2477"/><stop offset="1" style="stop-color:#c42482"/></radialGradient><path fill="url(#SVGID_1_)" d="M1246.411,91.365c-23.386,27.23-34.277,88.515-10.564,150.641s60.059,48.633,82.715,111.985 c29.905,83.594,15.985,195.888,15.985,195.888s35.951,104.11,61.004-6.478C1451.003,335.684,1246.411,142.517,1246.411,91.365z"/><radialGradient id="_Path__1_" cx="-7980.18" cy="9091.664" r="791.229" gradientTransform="matrix(1.1963 0 0 -1.1963 10688.3594 11066.8203)" gradientUnits="userSpaceOnUse"><stop offset="0" style="stop-color:#00ccda"/><stop offset=".22" style="stop-color:#0083ff"/><stop offset=".261" style="stop-color:#007af9"/><stop offset=".33" style="stop-color:#0060e8"/><stop offset=".333" style="stop-color:#005fe7"/><stop offset=".438" style="stop-color:#2639ad"/><stop offset=".522" style="stop-color:#401e84"/><stop offset=".566" style="stop-color:#4a1475"/></radialGradient><path id="_Path_" fill="url(#_Path__1_)" d="M961.047,953.748c239.488,0,433.496-195.058,433.496-435.574 S1200.535,82.601,961.279,82.601S528.018,277.658,528.018,518.174C527.554,758.923,721.79,953.748,961.047,953.748z"/><linearGradient id="SVGID_2_" x1="23.66" x2="-167.778" y1="477.015" y2="1103.243" gradientTransform="matrix(0.9766 0 0 -0.9766 999.0518 1179.8906)" gradientUnits="userSpaceOnUse"><stop offset="0" style="stop-color:#000f43;stop-opacity:.4"/><stop offset=".485" style="stop-color:#001962;stop-opacity:.173"/><stop offset="1" style="stop-color:#002079;stop-opacity:0"/></linearGradient><path fill="url(#SVGID_2_)" d="M1285.854,786.754c-9.371,6.611-19.201,12.545-29.417,17.757 c13.532-19.828,26.017-40.352,37.402-61.485c9.238-10.225,17.701-20.164,24.598-30.911c3.356-5.28,7.142-11.796,11.148-19.354 c24.337-43.848,51.172-114.808,51.933-187.695v-0.176c0.018-1.794,0.028-3.589,0.014-5.386c0.126-18.296-1.744-36.551-5.578-54.441 c0.195,1.397,0.367,2.794,0.543,4.19c-0.216-1.074-0.397-2.16-0.629-3.236c0.357,1.986,0.645,3.906,0.953,5.843 c4.975,42.204,1.432,83.371-16.291,113.721c-0.279,0.443-0.566,0.858-0.849,1.292c9.189-46.127,12.264-97.058,2.039-148.047 c0,0-4.089-24.788-34.547-100.04c-17.531-43.313-48.665-78.824-76.172-104.694c-24.111-29.83-46.01-49.849-58.081-62.559 c-25.216-26.552-35.784-46.454-40.124-59.44c-3.763-1.887-51.89-48.64-55.713-50.421c-21.007,32.57-87.072,134.448-55.646,229.635 c14.242,43.137,50.261,87.907,87.956,113.023c1.655,1.891,22.431,24.455,32.311,75.349c10.201,52.58,4.838,93.608-16.158,154.28 c-24.693,53.228-87.956,105.848-147.191,111.23c-126.637,11.505-172.997-63.582-172.997-63.582 c45.25,18.091,95.281,14.307,125.707-4.449c30.664-18.97,49.213-33.034,64.268-27.488c14.844,5.521,26.66-10.504,16.057-27.116 c-16.739-25.782-47.262-39.072-77.539-33.763c-30.696,4.989-58.814,29.306-99.035,5.756c-2.604-1.511-5.123-3.161-7.548-4.943 c-2.651-1.743,8.619,2.653,5.989,0.672c-7.827-4.252-21.68-13.518-25.273-16.813c-0.599-0.549,6.073,2.128,5.475,1.578 c-37.607-30.969-32.91-51.889-31.729-65.01c0.946-10.497,7.777-23.948,19.288-29.404c5.56,3.034,9.023,5.351,9.023,5.351 s-2.371-4.845-3.653-7.398c0.449-0.195,0.879-0.144,1.326-0.334c4.555,2.198,14.626,7.91,19.929,11.394 c6.906,4.871,9.107,9.215,9.107,9.215s1.818-1.001,0.474-5.249c-0.488-1.742-2.585-7.278-9.426-12.865l0.428,0.048 c4.095,2.333,7.973,5.026,11.589,8.048c1.929-7.013,5.397-14.335,4.635-27.434c-0.466-9.21-0.251-11.595-1.874-15.151 c-1.453-3.055,0.814-4.246,3.338-1.074c-0.432-2.485-1.156-4.911-2.156-7.227l0.021-0.238 c3.149-10.973,66.648-39.513,71.271-42.849c7.595-5.373,13.962-12.297,18.684-20.313c3.532-5.628,6.188-13.523,6.836-25.5 c0.347-8.637-3.671-14.389-67.878-21.111c-17.56-1.729-27.862-14.453-33.717-26.194c-1.068-2.529-2.157-4.821-3.247-7.111 c-1.04-2.677-1.876-5.43-2.498-8.233c10.497-30.149,28.135-55.642,54.069-74.902c1.413-1.287-5.646,0.33-4.234-0.957 c1.647-1.502,12.408-5.837,14.44-6.813c2.482-1.172-10.627-6.738-22.199-5.383c-11.786,1.328-14.289,2.734-20.579,5.401 c2.61-2.599,10.911-6.005,8.965-5.982c-12.706,1.948-28.495,9.334-41.992,17.699c-0.026-1.457,0.251-2.903,0.815-4.246 c-6.29,2.668-21.738,13.465-26.235,22.6c0.193-1.751,0.28-3.512,0.26-5.273c-4.792,3.996-9.114,8.523-12.886,13.494l-0.235,0.214 c-36.482-14.697-68.587-15.648-95.755-9.059c-5.943-5.969-8.847-1.605-22.37-31.317c-0.919-1.789,0.705,1.767,0,0 c-2.225-5.762,1.356,7.688,0,0c-22.738,17.941-52.656,38.274-67.018,52.627c-0.178,0.572,16.754-4.785,0,0 c-5.867,1.676-5.469,5.157-6.36,36.621c-0.215,2.386-0.024,5.058-0.218,7.205c-11.473,14.617-19.286,26.995-22.241,33.409 c-14.837,25.566-31.178,65.422-47.018,128.468c6.986-17.089,15.41-33.555,25.18-49.22c-13.172,33.464-25.905,86.014-28.451,166.938 c3.187-16.699,7.272-33.214,12.239-49.473c-3.109,67.139,8.469,134.146,33.926,196.349c9.11,22.286,24.18,56.108,49.833,93.164 c80.599,84.804,194.282,137.598,320.168,137.598C1086.75,935.559,1204.761,878.06,1285.854,786.754z"/><radialGradient id="SVGID_3_" cx="-8726.123" cy="7640.459" r="266.884" gradientTransform="matrix(1.1904 0.1201 0.1201 -1.1904 10933.7139 10766.0996)" gradientUnits="userSpaceOnUse"><stop offset=".003" style="stop-color:#ffea00"/><stop offset=".497" style="stop-color:#ff272d"/><stop offset="1" style="stop-color:#c42482"/></radialGradient><path fill="url(#SVGID_3_)" d="M1188.613,848.348c159.053-18.418,229.462-182.324,139.044-185.547 C1245.984,660.19,1113.275,857.039,1188.613,848.348z"/><radialGradient id="SVGID_4_" cx="-8750.27" cy="7896.372" r="445.678" gradientTransform="matrix(1.1904 0.1201 0.1201 -1.1904 10933.7139 10766.0996)" gradientUnits="userSpaceOnUse"><stop offset=".003" style="stop-color:#ffe900"/><stop offset=".157" style="stop-color:#ffaf0e"/><stop offset=".316" style="stop-color:#ff7a1b"/><stop offset=".472" style="stop-color:#ff4e26"/><stop offset=".621" style="stop-color:#ff2c2e"/><stop offset=".762" style="stop-color:#ff1434"/><stop offset=".892" style="stop-color:#ff0538"/><stop offset="1" style="stop-color:#ff0039"/></radialGradient><path fill="url(#SVGID_4_)" d="M1339.108,629.32c109.43-63.686,80.897-201.25,80.897-201.25s-42.232,49.061-70.923,127.266 C1320.742,632.776,1273.317,667.785,1339.108,629.32z"/><radialGradient id="SVGID_5_" cx="-8687.234" cy="7483.235" r="408.958" gradientTransform="matrix(1.1904 0.1201 0.1201 -1.1904 10933.7139 10766.0996)" gradientUnits="userSpaceOnUse"><stop offset=".003" style="stop-color:#ff272d"/><stop offset=".497" style="stop-color:#c42482"/><stop offset=".986" style="stop-color:#620700"/></radialGradient><path fill="url(#SVGID_5_)" d="M991.713,929.748c152.565,48.683,283.691-71.504,202.864-111.641 C1121.09,781.91,919.301,906.729,991.713,929.748z"/><radialGradient id="SVGID_6_" cx="198.199" cy="812.168" r="782.18" fx="226.177" fy="798.339" gradientTransform="matrix(0.9766 0 0 -0.9766 999.0518 1179.8906)" gradientUnits="userSpaceOnUse"><stop offset=".156" style="stop-color:#ffea00"/><stop offset=".231" style="stop-color:#ffde00"/><stop offset=".365" style="stop-color:#ffbf00"/><stop offset=".541" style="stop-color:#ff8e00"/><stop offset=".763" style="stop-color:#ff272d"/><stop offset=".796" style="stop-color:#f92433"/><stop offset=".841" style="stop-color:#e91c45"/><stop offset=".893" style="stop-color:#cf0e62"/><stop offset=".935" style="stop-color:#b5007f"/></radialGradient><path fill="url(#SVGID_6_)" d="M1350.478,687.729c3.711-5.237,8.73-22.007,13.164-29.503 c26.936-43.479,27.126-78.147,27.126-78.941c16.269-81.269,14.793-114.453,4.785-175.823 c-8.058-49.414-43.283-120.207-73.799-154.297c-31.445-35.122-9.291-23.679-39.738-49.334 c-26.687-29.583-52.562-58.878-66.653-70.659c-101.832-85.134-99.531-103.217-97.57-106.3c-0.331,0.362-0.817,0.9-1.438,1.604 c-1.206-4.808-2.058-8.851-2.058-8.851s-55.664,55.664-67.383,148.438c-7.65,60.567,15.022,123.707,47.852,164.063 c17.095,20.914,36.414,39.905,57.617,56.641v-0.025c24.805,35.622,38.457,79.579,38.457,126.864 c0,118.402-96.036,214.386-214.504,214.386c-16.146,0.009-32.241-1.8-47.982-5.39c-55.895-10.652-88.172-38.849-104.27-57.99 c-9.226-10.971-13.148-18.968-13.148-18.968c50.081,17.94,105.455,14.188,139.129-4.412c33.935-18.813,54.467-32.76,71.13-27.261 c16.426,5.475,29.503-10.417,17.773-26.891c-11.495-16.45-41.406-40.01-85.818-33.482c-33.974,4.948-65.095,29.063-109.609,5.708 c-2.867-1.489-5.655-3.126-8.354-4.902c-2.935-1.729,9.539,2.632,6.628,0.666c-8.662-4.217-23.997-13.406-27.972-16.674 c-0.663-0.544,6.722,2.11,6.055,1.563c-41.622-30.712-36.426-51.458-35.116-64.471c1.048-10.41,8.607-23.75,21.347-29.16 c6.152,3.009,9.986,5.306,9.986,5.306s-2.625-4.805-4.044-7.337c0.497-0.189,0.971-0.142,1.465-0.331 c5.041,2.18,16.188,7.841,22.057,11.299c7.644,4.831,10.08,9.139,10.08,9.139s2.013-0.992,0.523-5.205 c-0.544-1.728-2.86-7.218-10.432-12.759l0.474,0.048c4.494,2.291,8.785,4.961,12.826,7.981c2.135-6.954,5.975-14.216,5.13-27.206 c-0.516-9.133-0.277-11.499-2.074-15.025c-1.608-3.027,0.902-4.211,3.693-1.063c-0.483-2.483-1.285-4.894-2.387-7.171l0.024-0.236 c3.486-10.882,73.765-39.185,78.88-42.493c8.243-5.174,15.292-12.041,20.679-20.146c3.906-5.581,6.85-13.411,7.566-25.288 c0.24-5.352-1.407-9.587-20.02-13.638c-11.171-2.432-28.453-4.798-55.11-7.299c-19.434-1.715-30.837-14.332-37.316-25.977 c-1.183-2.509-2.388-4.785-3.594-7.053c-1.146-2.64-2.071-5.371-2.765-8.164c11.629-30.443,32.572-56.438,59.843-74.28 c1.563-1.277-6.25,0.327-4.688-0.949c1.824-1.489,13.733-5.788,15.983-6.757c2.747-1.158-11.762-6.68-24.569-5.338 c-13.044,1.317-15.814,2.711-22.776,5.357c2.89-2.577,12.076-5.957,9.923-5.933c-14.063,1.932-31.543,9.257-46.484,17.552 c-0.027-1.454,0.281-2.896,0.902-4.211c-6.962,2.646-24.06,13.354-29.037,22.412c0.214-1.734,0.31-3.481,0.287-5.229 c-5.242,3.907-10.025,8.396-14.258,13.379l-0.261,0.213c-40.378-14.575-75.91-15.519-105.979-8.984 c-6.578-5.919-17.154-14.869-32.121-44.336c-1.017-1.774-1.563,3.667-2.344,1.915c-5.815-13.489-9.329-35.59-8.752-50.826 c0,0-12.029,5.482-21.985,28.379c-1.849,4.116-3.034,6.387-4.219,8.657c-0.545,0.662,1.235-7.52,0.951-7.074 c-1.73,2.93-6.207,7.023-8.175,12.322c-1.352,3.927-3.247,6.126-4.457,11.023l-0.284,0.449c-0.098-1.443,0.358-5.938,0.026-5.017 c-4.666,9.428-8.683,19.165-12.02,29.142c-5.36,17.623-11.601,41.611-12.59,72.817c-0.238,2.366-0.026,5.016-0.241,7.146 c-12.695,14.496-21.346,26.771-24.616,33.133c-16.413,25.362-34.499,64.888-52.031,127.41 c7.801-17.079,17.128-33.418,27.869-48.817c-14.579,33.187-28.672,85.301-31.489,165.557c3.539-16.608,8.063-32.991,13.547-49.063 c-2.518,53.516,3.716,119.863,37.548,194.72c20.088,44.03,66.329,133.446,179.316,203.223l-0.01,0.007 c0,0,38.438,28.613,104.509,50.058c4.883,1.771,9.829,3.516,14.877,5.208c-1.584-0.64-3.116-1.313-4.604-2.004 c43.978,13.177,89.638,19.887,135.547,19.922c171.074,0.146,221.529-68.555,221.529-68.555s-0.178,0.134-0.501,0.368 c2.414-2.272,4.739-4.635,6.976-7.087c-26.991,25.488-88.589,27.18-111.621,25.341c39.28-11.536,65.128-21.295,115.405-40.546 c5.884-2.181,11.899-4.668,18.049-7.461c0.665-0.293,1.336-0.61,2.004-0.914c1.22-0.568,2.428-1.105,3.659-1.703 c24.496-11.544,47.53-25.964,68.615-42.956c50.488-40.332,61.474-79.646,67.216-105.566c-0.801,2.484-3.296,8.276-5.049,12.027 c-13.003,27.814-41.837,44.882-73.152,59.52c14.901-19.552,28.721-39.906,41.395-60.971 C1339.655,714.248,1342.845,698.387,1350.478,687.729z"/><radialGradient id="SVGID_7_" cx="139.35" cy="1204.92" r="923.617" gradientTransform="matrix(0.9766 0 0 -0.9766 999.0518 1179.8906)" gradientUnits="userSpaceOnUse"><stop offset=".279" style="stop-color:#ffea00"/><stop offset=".402" style="stop-color:#fd0"/><stop offset=".63" style="stop-color:#ffba00"/><stop offset=".856" style="stop-color:#ff9100"/><stop offset=".933" style="stop-color:#ff6711"/><stop offset=".994" style="stop-color:#ff4a1d"/></radialGradient><path fill="url(#SVGID_7_)" d="M1289.024,784.162c20.586-22.696,39.072-48.656,53.075-78.094 c36.035-75.764,91.75-201.738,47.869-333.307c-34.681-103.987-82.297-160.848-142.755-216.393 c-98.188-90.201-125.61-130.47-125.61-154.416c0,0-113.368,126.376-64.201,258.185s149.863,126.977,216.483,264.525 c78.394,161.86-63.427,338.49-180.707,387.928c7.181-1.595,260.713-58.968,274.037-203.986 C1366.914,711.271,1361.201,751.381,1289.024,784.162z"/><linearGradient id="SVGID_8_" x1="-9408.779" x2="-9124.419" y1="7797.511" y2="7869.995" gradientTransform="matrix(1.1904 0.1201 0.1201 -1.1904 10933.7139 10766.0996)" gradientUnits="userSpaceOnUse"><stop offset="0" style="stop-color:#c42482;stop-opacity:.5"/><stop offset=".474" style="stop-color:#ff272d;stop-opacity:.5"/><stop offset=".486" style="stop-color:#ff2c2c;stop-opacity:.513"/><stop offset=".675" style="stop-color:#ff7a1a;stop-opacity:.72"/><stop offset=".829" style="stop-color:#ffb20d;stop-opacity:.871"/><stop offset=".942" style="stop-color:#ffd605;stop-opacity:.964"/><stop offset="1" style="stop-color:#ffe302"/></linearGradient><path fill="url(#SVGID_8_)" d="M960.578,313.841c0.384-8.564-4.059-14.316-74.885-20.96c-29.14-2.69-40.298-29.623-43.699-40.958 c-10.361,26.919-14.64,55.166-12.34,89.333c1.572,22.383,16.61,46.407,23.799,60.513c0,0,1.598-2.076,2.335-2.844 c13.536-14.093,70.25-35.565,75.578-38.614C937.239,356.601,959.592,340.269,960.578,313.841z"/><linearGradient id="SVGID_9_" x1="-324.555" x2="-379.127" y1="2233.959" y2="2373.807" gradientTransform="matrix(0.9717 0.0977 0.0977 -0.9717 731.7241 2458.1011)" gradientUnits="userSpaceOnUse"><stop offset="0" style="stop-color:#891551;stop-opacity:.6"/><stop offset="1" style="stop-color:#c42482;stop-opacity:0"/></linearGradient><path fill="url(#SVGID_9_)" d="M648.783,154.757c-1.017-1.775-1.563,3.666-2.344,1.915c-5.815-13.489-9.354-35.352-8.516-50.803 c0,0-12.029,5.482-21.985,28.379c-1.849,4.116-3.034,6.387-4.219,8.657c-0.545,0.662,1.235-7.52,0.951-7.074 c-1.729,2.93-6.206,7.023-8.15,12.085c-1.612,4.14-3.271,6.362-4.505,11.496c-0.38,1.396,0.383-6.175,0.051-5.253 c-23.155,44.751-27.575,112.416-25.135,109.555c49.295-52.637,105.786-65.12,105.786-65.12 C674.707,194.166,661.647,181.382,648.783,154.757L648.783,154.757z"/><linearGradient id="SVGID_10_" x1="-547.986" x2="-453.878" y1="433.052" y2="326.164" gradientTransform="matrix(0.9717 0.0977 0.0977 -0.9717 1199.6294 934.2622)" gradientUnits="userSpaceOnUse"><stop offset=".005" style="stop-color:#891551;stop-opacity:.5"/><stop offset=".484" style="stop-color:#ff272d;stop-opacity:.5"/><stop offset="1" style="stop-color:#ff272d;stop-opacity:0"/></linearGradient><path fill="url(#SVGID_10_)" d="M835.824,705.176c-68.09-29.071-145.5-70.073-142.578-163.221 c3.979-122.675,114.399-98.429,114.399-98.429c-4.167,1.015-15.308,8.947-19.256,17.402c-4.173,10.573-11.786,34.449,11.28,59.473 c36.22,39.25-74.414,93.121,96.351,194.89c4.307,2.344-40.03-1.396-60.194-10.115H835.824z"/><linearGradient id="SVGID_11_" x1="-369.964" x2="-369.897" y1="247.3" y2="322.081" gradientTransform="matrix(0.9717 0.0977 0.0977 -0.9717 1199.6294 934.2622)" gradientUnits="userSpaceOnUse"><stop offset="0" style="stop-color:#c42482"/><stop offset=".083" style="stop-color:#c42482;stop-opacity:.81"/><stop offset=".206" style="stop-color:#c42482;stop-opacity:.565"/><stop offset=".328" style="stop-color:#c42482;stop-opacity:.362"/><stop offset=".447" style="stop-color:#c42482;stop-opacity:.204"/><stop offset=".562" style="stop-color:#c42482;stop-opacity:.091"/><stop offset=".673" style="stop-color:#c42482;stop-opacity:.023"/><stop offset=".773" style="stop-color:#c42482;stop-opacity:0"/></linearGradient><path fill="url(#SVGID_11_)" d="M811.635,644.043c48.283,16.804,104.531,13.856,138.206-4.744 c22.544-12.55,51.465-32.65,69.26-27.688c-15.407-6.09-27.076-8.936-41.113-9.631c-2.391,0-5.256-0.051-7.859-0.313 c-5.141-0.017-10.279,0.265-15.388,0.843c-8.691,0.799-18.326,6.282-27.085,5.402c-0.474-0.048,8.496-3.686,7.767-3.521 c-4.641,0.968-9.683,1.177-15.01,1.837c-3.386,0.377-6.298,0.801-9.659,0.94c-100.568,8.528-185.563-54.505-185.563-54.505 C717.955,577.029,757.578,625.223,811.635,644.043L811.635,644.043z"/><linearGradient id="SVGID_12_" x1="103.541" x2="409.197" y1="1170.088" y2="486.593" gradientTransform="matrix(0.9766 0 0 -0.9766 999.0518 1179.8906)" gradientUnits="userSpaceOnUse"><stop offset="0" style="stop-color:#fff14f"/><stop offset=".268" style="stop-color:#ffee4c"/><stop offset=".452" style="stop-color:#ffe643"/><stop offset=".612" style="stop-color:#ffd834"/><stop offset=".757" style="stop-color:#ffc41e"/><stop offset=".892" style="stop-color:#ffab02"/><stop offset=".902" style="stop-color:#ffa900"/><stop offset=".949" style="stop-color:#ffa000"/><stop offset="1" style="stop-color:#ff9100"/></linearGradient><path fill="url(#SVGID_12_)" d="M1288.846,784.811c101.721-99.873,153.186-221.274,131.429-357.44c0,0,8.691,69.824-24.266,141.238 c15.833-69.72,17.676-156.361-24.39-246.082c-56.146-119.757-148.484-182.771-183.737-209.061 c-53.413-39.833-75.555-80.39-75.954-88.759c-15.956,32.692-64.225,144.727-5.186,241.211 c55.313,90.395,142.446,117.226,203.445,200.144C1422.565,618.815,1288.846,784.811,1288.846,784.811z"/><linearGradient id="SVGID_13_" x1="163.897" x2="19.11" y1="776.998" y2="388.248" gradientTransform="matrix(0.9766 0 0 -0.9766 999.0518 1179.8906)" gradientUnits="userSpaceOnUse"><stop offset="0" style="stop-color:#ff8e00"/><stop offset=".04" style="stop-color:#ff8e00;stop-opacity:.858"/><stop offset=".084" style="stop-color:#ff8e00;stop-opacity:.729"/><stop offset=".13" style="stop-color:#ff8e00;stop-opacity:.628"/><stop offset=".178" style="stop-color:#ff8e00;stop-opacity:.557"/><stop offset=".227" style="stop-color:#ff8e00;stop-opacity:.514"/><stop offset=".282" style="stop-color:#ff8e00;stop-opacity:.5"/><stop offset=".389" style="stop-color:#ff8e00;stop-opacity:.478"/><stop offset=".524" style="stop-color:#ff8e00;stop-opacity:.416"/><stop offset=".676" style="stop-color:#ff8e00;stop-opacity:.314"/><stop offset=".838" style="stop-color:#ff8e00;stop-opacity:.172"/><stop offset="1" style="stop-color:#ff8e00;stop-opacity:0"/></linearGradient><path fill="url(#SVGID_13_)" d="M1274.271,524.952c-35.549-73.438-79.918-105.47-121.889-140.187 c4.883,6.836,6.086,9.251,8.789,13.672c36.94,39.371,91.413,135.406,51.865,255.964c-74.442,226.929-372.21,120.068-403.428,90.051 c12.629,131.337,232.457,194.185,375.586,109.014C1266.641,776.367,1332.527,645.301,1274.271,524.952z"/></g></svg>