<svg xmlns="http://www.w3.org/2000/svg" xmlns:svg="http://www.w3.org/2000/svg" id="svg2" width="100.49" height="100.5" version="1.1" viewBox="0 0 100.49 100.5" xml:space="preserve"><metadata id="metadata30"/><defs id="defs4"><linearGradient id="gradiant1" x1="0" x2="1" y1="0" y2="0" gradientTransform="matrix(0,97.396584,-97.396584,0,41.864814,1.639526)" gradientUnits="userSpaceOnUse" spreadMethod="pad"><stop style="stop-color:#ff1b2d;stop-opacity:1" id="stop7" offset="0"/><stop style="stop-color:#ff1b2d;stop-opacity:1" id="stop9" offset=".3"/><stop style="stop-color:#ff1b2d;stop-opacity:1" id="stop11" offset=".61"/><stop style="stop-color:#a70014;stop-opacity:1" id="stop13" offset="1"/></linearGradient><linearGradient id="gradiant2" x1="0" x2="1" y1="0" y2="0" gradientTransform="matrix(0,86.142511,-86.142511,0,67.09835,7.38012)" gradientUnits="userSpaceOnUse" spreadMethod="pad"><stop style="stop-color:#9c0000;stop-opacity:1" id="stop16" offset="0"/><stop style="stop-color:#ff4b4b;stop-opacity:1" id="stop18" offset=".7"/><stop style="stop-color:#ff4b4b;stop-opacity:1" id="stop20" offset="1"/></linearGradient></defs><path id="path22" d="M 50.24,0 C 22.49,0 0,22.5 0,50.25 l 0,0 c 0,26.95 21.22,48.94 47.86,50.19 l 0,0 c 0.8,0.04 1.59,0.06 2.39,0.06 l 0,0 c 12.87,0 24.6,-4.84 33.49,-12.79 l 0,0 c -5.89,3.91 -12.78,6.15 -20.14,6.15 l 0,0 c -11.97,0 -22.68,-5.94 -29.89,-15.3 l 0,0 C 28.15,72.01 24.55,62.31 24.31,51.43 l 0,0 c 0,-0.03 0,-2.34 0,-2.37 l 0,0 C 24.55,38.19 28.15,28.49 33.7,21.93 l 0,0 C 40.91,12.57 51.63,6.64 63.6,6.64 l 0,0 c 7.36,0 14.25,2.25 20.14,6.16 l 0,0 C 74.89,4.88 63.23,0.05 50.43,0 l 0,0 C 50.37,0 50.3,0 50.24,0 z" style="fill:url(#gradiant1)"/><path id="path24" d="m 33.7,21.93 c 4.62,-5.44 10.57,-8.72 17.08,-8.72 l 0,0 c 14.63,0 26.49,16.59 26.49,37.04 l 0,0 c 0,20.46 -11.86,37.04 -26.49,37.04 l 0,0 c -6.51,0 -12.46,-3.28 -17.07,-8.72 l 0,0 c 7.21,9.36 17.92,15.3 29.89,15.3 l 0,0 c 7.36,0 14.25,-2.25 20.14,-6.15 l 0,0 c 10.28,-9.21 16.75,-22.58 16.75,-37.47 l 0,0 c 0,-14.88 -6.47,-28.26 -16.76,-37.46 l 0,0 C 77.84,8.88 70.96,6.64 63.6,6.64 l 0,0 c -11.97,0 -22.68,5.94 -29.89,15.3" style="fill:url(#gradiant2)"/></svg>